<mxfile host="app.diagrams.net" modified="2023-02-02T19:34:58.819Z" agent="5.0 (X11)" etag="aCMeotdJ0-bJ1_J6-Z8G" version="20.8.13" type="github">
  <diagram name="PÃ¡gina-1" id="n8u8xJ8j_5SZoOkLJHBC">
    <mxGraphModel dx="778" dy="447" grid="1" gridSize="10" guides="1" tooltips="1" connect="1" arrows="1" fold="1" page="1" pageScale="1" pageWidth="827" pageHeight="1169" math="0" shadow="0">
      <root>
        <mxCell id="0" />
        <mxCell id="1" parent="0" />
        <mxCell id="X6K8GWh5fb0S3sGI-7qI-9" style="edgeStyle=orthogonalEdgeStyle;rounded=0;orthogonalLoop=1;jettySize=auto;html=1;" parent="1" source="X6K8GWh5fb0S3sGI-7qI-1" target="X6K8GWh5fb0S3sGI-7qI-7" edge="1">
          <mxGeometry relative="1" as="geometry" />
        </mxCell>
        <mxCell id="CilGn9KnwoODo5RzUsQ2-2" style="edgeStyle=orthogonalEdgeStyle;rounded=0;orthogonalLoop=1;jettySize=auto;html=1;entryX=0.5;entryY=0;entryDx=0;entryDy=0;" parent="1" source="X6K8GWh5fb0S3sGI-7qI-1" target="CilGn9KnwoODo5RzUsQ2-1" edge="1">
          <mxGeometry relative="1" as="geometry" />
        </mxCell>
        <mxCell id="CilGn9KnwoODo5RzUsQ2-6" style="edgeStyle=orthogonalEdgeStyle;rounded=0;orthogonalLoop=1;jettySize=auto;html=1;entryX=0.5;entryY=0;entryDx=0;entryDy=0;" parent="1" source="X6K8GWh5fb0S3sGI-7qI-1" target="CilGn9KnwoODo5RzUsQ2-3" edge="1">
          <mxGeometry relative="1" as="geometry" />
        </mxCell>
        <mxCell id="CilGn9KnwoODo5RzUsQ2-7" style="edgeStyle=orthogonalEdgeStyle;rounded=0;orthogonalLoop=1;jettySize=auto;html=1;" parent="1" source="X6K8GWh5fb0S3sGI-7qI-1" target="CilGn9KnwoODo5RzUsQ2-8" edge="1">
          <mxGeometry relative="1" as="geometry">
            <mxPoint x="360" y="570" as="targetPoint" />
          </mxGeometry>
        </mxCell>
        <mxCell id="X6K8GWh5fb0S3sGI-7qI-1" value="Auth User" style="rounded=0;whiteSpace=wrap;html=1;" parent="1" vertex="1">
          <mxGeometry x="150" y="420" width="120" height="60" as="geometry" />
        </mxCell>
        <mxCell id="X6K8GWh5fb0S3sGI-7qI-7" value="Id" style="ellipse;whiteSpace=wrap;html=1;" parent="1" vertex="1">
          <mxGeometry x="70" y="435" width="60" height="30" as="geometry" />
        </mxCell>
        <mxCell id="X6K8GWh5fb0S3sGI-7qI-18" style="edgeStyle=orthogonalEdgeStyle;rounded=0;orthogonalLoop=1;jettySize=auto;html=1;" parent="1" source="X6K8GWh5fb0S3sGI-7qI-10" target="X6K8GWh5fb0S3sGI-7qI-11" edge="1">
          <mxGeometry relative="1" as="geometry" />
        </mxCell>
        <mxCell id="X6K8GWh5fb0S3sGI-7qI-19" style="edgeStyle=orthogonalEdgeStyle;rounded=0;orthogonalLoop=1;jettySize=auto;html=1;entryX=0.5;entryY=0;entryDx=0;entryDy=0;" parent="1" source="X6K8GWh5fb0S3sGI-7qI-10" target="X6K8GWh5fb0S3sGI-7qI-12" edge="1">
          <mxGeometry relative="1" as="geometry" />
        </mxCell>
        <mxCell id="X6K8GWh5fb0S3sGI-7qI-20" style="edgeStyle=orthogonalEdgeStyle;rounded=0;orthogonalLoop=1;jettySize=auto;html=1;entryX=0.5;entryY=0;entryDx=0;entryDy=0;" parent="1" source="X6K8GWh5fb0S3sGI-7qI-10" target="X6K8GWh5fb0S3sGI-7qI-13" edge="1">
          <mxGeometry relative="1" as="geometry" />
        </mxCell>
        <mxCell id="X6K8GWh5fb0S3sGI-7qI-21" style="edgeStyle=orthogonalEdgeStyle;rounded=0;orthogonalLoop=1;jettySize=auto;html=1;entryX=0.5;entryY=0;entryDx=0;entryDy=0;" parent="1" source="X6K8GWh5fb0S3sGI-7qI-10" target="X6K8GWh5fb0S3sGI-7qI-15" edge="1">
          <mxGeometry relative="1" as="geometry" />
        </mxCell>
        <mxCell id="CilGn9KnwoODo5RzUsQ2-10" style="edgeStyle=orthogonalEdgeStyle;rounded=0;orthogonalLoop=1;jettySize=auto;html=1;" parent="1" source="X6K8GWh5fb0S3sGI-7qI-10" target="CilGn9KnwoODo5RzUsQ2-9" edge="1">
          <mxGeometry relative="1" as="geometry" />
        </mxCell>
        <mxCell id="oKwZA0XOfhb956u6FQh5-14" style="edgeStyle=orthogonalEdgeStyle;rounded=0;orthogonalLoop=1;jettySize=auto;html=1;entryX=0;entryY=0.5;entryDx=0;entryDy=0;" edge="1" parent="1" source="X6K8GWh5fb0S3sGI-7qI-10" target="CilGn9KnwoODo5RzUsQ2-11">
          <mxGeometry relative="1" as="geometry" />
        </mxCell>
        <mxCell id="X6K8GWh5fb0S3sGI-7qI-10" value="Data Resource" style="rounded=0;whiteSpace=wrap;html=1;" parent="1" vertex="1">
          <mxGeometry x="420" y="380" width="120" height="60" as="geometry" />
        </mxCell>
        <mxCell id="X6K8GWh5fb0S3sGI-7qI-11" value="id " style="ellipse;whiteSpace=wrap;html=1;" parent="1" vertex="1">
          <mxGeometry x="374" y="495" width="46" height="22" as="geometry" />
        </mxCell>
        <mxCell id="X6K8GWh5fb0S3sGI-7qI-12" value="likes" style="ellipse;whiteSpace=wrap;html=1;" parent="1" vertex="1">
          <mxGeometry x="430" y="495" width="40" height="24" as="geometry" />
        </mxCell>
        <mxCell id="X6K8GWh5fb0S3sGI-7qI-13" value="dislikes" style="ellipse;whiteSpace=wrap;html=1;" parent="1" vertex="1">
          <mxGeometry x="480" y="495" width="40" height="26" as="geometry" />
        </mxCell>
        <mxCell id="X6K8GWh5fb0S3sGI-7qI-15" value="Resource" style="ellipse;whiteSpace=wrap;html=1;" parent="1" vertex="1">
          <mxGeometry x="531" y="494.25" width="59" height="25.75" as="geometry" />
        </mxCell>
        <mxCell id="X6K8GWh5fb0S3sGI-7qI-24" style="edgeStyle=orthogonalEdgeStyle;rounded=0;orthogonalLoop=1;jettySize=auto;html=1;" parent="1" source="X6K8GWh5fb0S3sGI-7qI-23" target="X6K8GWh5fb0S3sGI-7qI-1" edge="1">
          <mxGeometry relative="1" as="geometry" />
        </mxCell>
        <mxCell id="X6K8GWh5fb0S3sGI-7qI-25" style="edgeStyle=orthogonalEdgeStyle;rounded=0;orthogonalLoop=1;jettySize=auto;html=1;entryX=0.5;entryY=0;entryDx=0;entryDy=0;" parent="1" source="X6K8GWh5fb0S3sGI-7qI-23" target="X6K8GWh5fb0S3sGI-7qI-10" edge="1">
          <mxGeometry relative="1" as="geometry" />
        </mxCell>
        <mxCell id="X6K8GWh5fb0S3sGI-7qI-23" value="Like" style="rhombus;whiteSpace=wrap;html=1;" parent="1" vertex="1">
          <mxGeometry x="309" y="320" width="60" height="60" as="geometry" />
        </mxCell>
        <mxCell id="X6K8GWh5fb0S3sGI-7qI-27" value="n:1" style="text;html=1;strokeColor=none;fillColor=none;align=center;verticalAlign=middle;whiteSpace=wrap;rounded=0;" parent="1" vertex="1">
          <mxGeometry x="400" y="320" width="60" height="30" as="geometry" />
        </mxCell>
        <mxCell id="CilGn9KnwoODo5RzUsQ2-1" value="Last name" style="ellipse;whiteSpace=wrap;html=1;" parent="1" vertex="1">
          <mxGeometry x="184" y="546" width="52" height="41" as="geometry" />
        </mxCell>
        <mxCell id="CilGn9KnwoODo5RzUsQ2-3" value="First name" style="ellipse;whiteSpace=wrap;html=1;" parent="1" vertex="1">
          <mxGeometry x="121" y="547.5" width="56" height="33" as="geometry" />
        </mxCell>
        <mxCell id="CilGn9KnwoODo5RzUsQ2-8" value="Email" style="ellipse;whiteSpace=wrap;html=1;" parent="1" vertex="1">
          <mxGeometry x="247" y="548.5" width="60" height="30" as="geometry" />
        </mxCell>
        <mxCell id="CilGn9KnwoODo5RzUsQ2-9" value="Description" style="ellipse;whiteSpace=wrap;html=1;" parent="1" vertex="1">
          <mxGeometry x="323" y="384" width="70" height="52" as="geometry" />
        </mxCell>
        <mxCell id="CilGn9KnwoODo5RzUsQ2-11" value="Date time" style="ellipse;whiteSpace=wrap;html=1;" parent="1" vertex="1">
          <mxGeometry x="560" y="383.5" width="70" height="53" as="geometry" />
        </mxCell>
        <mxCell id="oKwZA0XOfhb956u6FQh5-4" style="edgeStyle=orthogonalEdgeStyle;rounded=0;orthogonalLoop=1;jettySize=auto;html=1;entryX=1;entryY=0.5;entryDx=0;entryDy=0;" edge="1" parent="1" source="oKwZA0XOfhb956u6FQh5-1" target="X6K8GWh5fb0S3sGI-7qI-1">
          <mxGeometry relative="1" as="geometry" />
        </mxCell>
        <mxCell id="oKwZA0XOfhb956u6FQh5-6" value="" style="edgeStyle=orthogonalEdgeStyle;rounded=0;orthogonalLoop=1;jettySize=auto;html=1;" edge="1" parent="1" source="oKwZA0XOfhb956u6FQh5-1" target="oKwZA0XOfhb956u6FQh5-5">
          <mxGeometry relative="1" as="geometry" />
        </mxCell>
        <mxCell id="oKwZA0XOfhb956u6FQh5-1" value="Geograpy" style="rhombus;whiteSpace=wrap;html=1;" vertex="1" parent="1">
          <mxGeometry x="362" y="540" width="70" height="60" as="geometry" />
        </mxCell>
        <mxCell id="oKwZA0XOfhb956u6FQh5-9" style="edgeStyle=orthogonalEdgeStyle;rounded=0;orthogonalLoop=1;jettySize=auto;html=1;" edge="1" parent="1" source="oKwZA0XOfhb956u6FQh5-5" target="oKwZA0XOfhb956u6FQh5-7">
          <mxGeometry relative="1" as="geometry" />
        </mxCell>
        <mxCell id="oKwZA0XOfhb956u6FQh5-10" style="edgeStyle=orthogonalEdgeStyle;rounded=0;orthogonalLoop=1;jettySize=auto;html=1;" edge="1" parent="1" source="oKwZA0XOfhb956u6FQh5-5" target="oKwZA0XOfhb956u6FQh5-8">
          <mxGeometry relative="1" as="geometry" />
        </mxCell>
        <mxCell id="oKwZA0XOfhb956u6FQh5-5" value="Countrys" style="rounded=0;whiteSpace=wrap;html=1;" vertex="1" parent="1">
          <mxGeometry x="470" y="540" width="120" height="60" as="geometry" />
        </mxCell>
        <mxCell id="oKwZA0XOfhb956u6FQh5-7" value="Id" style="ellipse;whiteSpace=wrap;html=1;" vertex="1" parent="1">
          <mxGeometry x="510" y="630" width="40" height="30" as="geometry" />
        </mxCell>
        <mxCell id="oKwZA0XOfhb956u6FQh5-8" value="Country" style="ellipse;whiteSpace=wrap;html=1;" vertex="1" parent="1">
          <mxGeometry x="610" y="550" width="50" height="40" as="geometry" />
        </mxCell>
        <mxCell id="oKwZA0XOfhb956u6FQh5-11" value="n:1" style="text;html=1;strokeColor=none;fillColor=none;align=center;verticalAlign=middle;whiteSpace=wrap;rounded=0;" vertex="1" parent="1">
          <mxGeometry x="420" y="546" width="60" height="30" as="geometry" />
        </mxCell>
      </root>
    </mxGraphModel>
  </diagram>
</mxfile>
